<svg xmlns="http://www.w3.org/2000/svg" viewBox="0 0 314.03 68.81"><defs><style>.cls-1{fill:#fff;}</style></defs><title>logo</title><g id="Camada_2" data-name="Camada 2"><g id="Layer_1" data-name="Layer 1"><path class="cls-1" d="M270.75,68.37V18.8H255.53V21c-2.42-2.15-5.78-3.38-10.39-3.38a25.61,25.61,0,1,0,0,51.22c4.61,0,8-1.24,10.39-3.38v2.94ZM245.14,53.59a10.39,10.39,0,1,1,10.39-10.41v0A10.41,10.41,0,0,1,245.14,53.59Z"/><path class="cls-1" d="M215.22,68.37V35.32c0-15.08-17.67-23.91-30.35-12.61A31.92,31.92,0,0,0,182,25.57c-5.51-8.45-17.92-11.39-27.49-2.86V18.8H139.31V68.37h15.22V36.52a7.56,7.56,0,0,1,15.12,0V68.37h15.22V36.52a7.57,7.57,0,0,1,15.13,0V68.37Z"/><rect class="cls-1" x="119.78" y="18.8" width="15.22" height="49.57"/><path class="cls-1" d="M100.25,36.52V68.37h15.21V35.32c0-15.08-17.67-23.91-30.34-12.61V18.8H69.9V68.37H85.12V36.52a7.57,7.57,0,0,1,15.13,0Z"/><path class="cls-1" d="M42.8,68.37A22.85,22.85,0,0,0,65.59,45.59V21.36L86.93,0H84.27L65.59,18.7V16.07L81.64,0H79L65.59,13.41v-3L76,0H73.33L65.59,7.75V4.82L70.4,0H67.75L65.59,2.16V.57H50.37V17.39L35.24,32.53V.57H20v45c0,.7,0,1.38.1,2.07L0,67.79H2.66L20.45,50c.16.8.36,1.58.59,2.34L5.58,67.79H8.24L21.76,54.27a19.87,19.87,0,0,0,1,2L11.24,67.79H13.9L23.71,58c.35.53.71,1,1.1,1.53l-8.29,8.29h2.66L26,61A22.74,22.74,0,0,0,42.8,68.37Zm7.57-22.78a7.59,7.59,0,0,1-7.56,7.56h0a7.52,7.52,0,0,1-6-3L50.37,36.59ZM35.24,35.19,50.37,20.05V23L35.24,38.12Zm0,5.59L50.37,25.64v3L35.24,43.78Zm0,5.61L50.37,31.3v2.63L35.82,48.48A7.31,7.31,0,0,1,35.28,46.39Z"/><path class="cls-1" d="M302.49,30.57l11.44-11.45L314,19a17.31,17.31,0,0,0-2-1.19c-7.13-3.67-15.76-1.8-21.75,4.9V18.8H275.06V68.37h15.22V36.52A7.59,7.59,0,0,1,297.85,29a6.45,6.45,0,0,1,.76,0l.33.05.14,0a7.51,7.51,0,0,1,2.27.76A8.6,8.6,0,0,1,302.49,30.57Z"/></g></g></svg>